# AST/ASF file generated using VICON BodyLanguage
# -----------------------------------------------
:version 1.10
:name VICON
:units
  mass 1.0
  length 0.45
  angle deg
:documentation
   .ast/.asf automatically generated from VICON data using
   VICON BodyBuilder and BodyLanguage model FoxedUp or BRILLIANT.MOD
:root
   order TX TY TZ RX RY RZ
   axis XYZ
   position 0 0 0  
   orientation 0 0 0 
:bonedata
  begin
     id 1 
     name lhipjoint
     direction 0.645893 -0.654526 0.392961 
     length 2.38111 
     axis 0 0 0  XYZ
  end
  begin
     id 2 
     name lfemur
     direction 0.34202 -0.939693 0  
     length 6.6822  
     axis 0 0 20  XYZ
    dof rx ry rz
    limits (-160.0 20.0)
           (-70.0 70.0)
           (-60.0 70.0)
  end
  begin
     id 3 
     name ltibia
     direction 0.34202 -0.939693 0   
     length 6.93904   
     axis 0 0 20   XYZ
    dof rx
    limits (-10.0 170.0)
  end
  begin
     id 4 
     name lfoot
     direction 0.0694967 -0.190941 0.979138   
     length 2.13616   
     axis -90 7.62852e-016 20   XYZ
    dof rx rz
    limits (-45.0 90.0)
           (-70.0 20.0)
  end
  begin
     id 5 
     name ltoes
     direction 1.535e-011 -4.2202e-011 1   
     length 1.07536   
     axis -90 7.62852e-016 20   XYZ
    dof rx
    limits (-90.0 20.0)
  end
  begin
     id 6 
     name rhipjoint
     direction -0.700219 -0.612087 0.367481   
     length 2.54621  
     axis 0 0 0  XYZ 
  end
  begin
     id 7 
     name rfemur
     direction -0.34202 -0.939693 0   
     length 6.55353   
     axis 0 0 -20   XYZ
    dof rx ry rz
    limits (-160.0 20.0)
           (-70.0 70.0)
           (-70.0 60.0)
  end
  begin
     id 8 
     name rtibia
     direction -0.34202 -0.939693 0   
     length 6.8736   
     axis 0 0 -20   XYZ
    dof rx
    limits (-10.0 170.0)
 end
 begin
     id 9 
     name rfoot
     direction -0.0679995 -0.186827 0.980037   
     length 2.1218  
     axis -90 -7.62852e-016 -20   XYZ
    dof rx rz
    limits (-45.0 90.0)
           (-20.0 70.0)
  end
  begin
     id 10 
     name rtoes
     direction -1.53589e-011 -4.21772e-011 1   
     length 1.06864   
     axis -90 -7.62852e-016 -20   XYZ
    dof rx
    limits (-90.0 20.0)
  end
  begin
     id 11 
     name lowerback
     direction -0.0416607 0.996347 -0.0745409   
     length 2.12205   
     axis 0 0 0   XYZ
    dof rx ry rz
    limits (-20.0 45.0)
           (-30.0 30.0)
           (-30.0 30.0)
  end
  begin
     id 12 
     name upperback
     direction -0.000153993 0.999276 -0.0380568   
     length 2.12759   
     axis 0 0 0   XYZ
    dof rx ry rz
    limits (-20.0 45.0)
           (-30.0 30.0)
           (-30.0 30.0)
  end
  begin
     id 13 
     name thorax
     direction 0.0187671 0.999821 -0.00241421   
     length 2.13704   
     axis 0 0 0   XYZ
    dof rx ry rz
    limits (-20.0 45.0)
           (-30.0 30.0)
           (-30.0 30.0)
  end
  begin
     id 14 
     name lowerneck
     direction 0.0268157 0.964865 0.261374   
     length 1.65253   
     axis 0 0 0   XYZ
    dof rx ry rz
    limits (-20.0 45.0)
           (-30.0 30.0)
           (-30.0 30.0)
  end
  begin
     id 15 
     name upperneck
     direction 0.00263774 0.939908 -0.341418   
     length 1.72375   
     axis 0 0 0   XYZ
    dof rx ry rz
    limits (-20.0 45.0)
           (-30.0 30.0)
           (-30.0 30.0)
  end
  begin
     id 16
     name head
     direction -0.00526001 0.989001 -0.147818  
     length 1.74878  
     axis 0 0 0   XYZ
    dof rx ry rz
    limits (-20.0 45.0)
           (-30.0 30.0)
           (-30.0 30.0)
  end
  begin
     id 17 
     name lclavicle
     direction 0.881214 0.461162 -0.103884  
     length 3.25108  
     axis 0 0 0   XYZ
    dof ry rz
    limits (-20.0 10.0)
           (0.0 20.0)
  end
  begin
     id 18 
     name lhumerus
     direction 1 -4.4899e-011 3.38092e-027   
     length 4.87408   
     axis 180 -30 -90   XYZ
    dof rx ry rz
    limits (-60.0 90.0)
           (-90.0 90.0)
           (-90.0 90.0)
  end
  begin
     id 19
     name lradius
     direction 1 -4.48931e-011 9.96288e-027   
     length 2.76729   
     axis 180 -30 -90   XYZ
    dof rx
    limits (-10.0 170.0)
  end
  begin
     id 20
     name lwrist
     direction 1 -4.4896e-011 1.50617e-026   
     length 1.38364   
     axis -9.31234e-015 90 90   XYZ
    dof ry
    limits (-180.0 0.0)
 end
  begin
     id 21 
     name lhand
     direction 1 -4.49038e-011 3.01286e-026   
     length 0.98922   
     axis -1.92217e-014 90 90   XYZ
    dof rx rz
    limits (-90.0 90.0)
           (-45.0 45.0)
  end
  begin
     id 22 
     name lfingers
     direction 1 -4.49051e-011 6.02588e-026   
     length 0.797535   
     axis -3.84436e-014 90 90   XYZ
    dof rx
    limits (0.0 90.0)
  end
  begin
     id 23
     name lthumb
     direction 0.707107 -6.34901e-011 0.707107   
     length 1.14511   
     axis -90 45 2.19363e-014   XYZ
    dof rx rz
    limits (-45.0 45.0)
           (-45.0 45.0)
  end
  begin
     id 24 
     name rclavicle
     direction -0.893894 0.441652 -0.0767889   
     length 3.29361  
     axis 0 0 0   XYZ 
    dof ry rz
    limits (-10.0 20.0)
           (-20.0 0.0)
  end
  begin
     id 25 
     name rhumerus
     direction -1 -4.48945e-011 8.0491e-028  
     length 4.71404   
     axis 180 30 90   XYZ
    dof rx ry rz
    limits (-90.0 60.0)
           (-90.0 90.0)
           (-90.0 90.0)
  end
  begin
     id 26 
     name rradius
     direction -1 -4.48986e-011 9.27795e-027   
     length 2.83468   
     axis 180 30 90   XYZ
    dof rx
    limits (-10.0 170.0)
  end
  begin
     id 27 
     name rwrist
     direction -1 -4.49029e-011 1.5064e-026   
     length 1.41734   
     axis -9.31234e-015 -90 -90   XYZ
    dof ry
    limits (-180.0 0.0)
  end
  begin
     id 28
     name rhand
     direction -1 -4.48857e-011 3.01165e-026   
     length 0.868195   
     axis -1.92217e-014 -90 -90   XYZ
    dof rx rz
    limits (-90.0 90.0)
           (-45.0 45.0)
  end
  begin
     id 29
     name rfingers
     direction -1 -4.49048e-011 6.02585e-026   
     length 0.699961   
     axis -3.84436e-014 -90 -90   XYZ
    dof rx
    limits (0.0 90.0)
  end
  begin
     id 30
     name rthumb
     direction -0.707107 -6.34854e-011 0.707107   
     length 1.00501   
     axis -90 -45 -2.19363e-014   XYZ
    dof rx rz
    limits (-45.0 45.0)
           (-45.0 45.0)
  end
:hierarchy
  begin
    root lhipjoint rhipjoint lowerback
    lhipjoint lfemur
    lfemur ltibia
    ltibia lfoot
    lfoot ltoes
    rhipjoint rfemur
    rfemur rtibia
    rtibia rfoot
    rfoot rtoes
    lowerback upperback
    upperback thorax
    thorax lowerneck lclavicle rclavicle
    lowerneck upperneck
    upperneck head
    lclavicle lhumerus
    lhumerus lradius
    lradius lwrist
    lwrist lhand lthumb
    lhand lfingers
    rclavicle rhumerus
    rhumerus rradius
    rradius rwrist
    rwrist rhand rthumb
    rhand rfingers
  end

#!OML:ASF H:\ManfredObstacles\Project 1\Capture day 2\Session 1\male.ASF
:FULLY-SPECIFIED
:DEGREES
96
root 2.64673 14.9095 20.5879 -167.663 -23.1072 183.362
lowerback 24.6135 0.863907 -0.891479
upperback 13.1358 -1.71987 -0.31727
thorax 0.812555 -1.94182 0.545117
lowerneck -32.529 -0.465301 1.03026
upperneck 31.9277 -1.53352 -0.977217
head 17.0766 -0.817253 -1.02963
rclavicle 5.56597e-015 1.66979e-014
rhumerus -13.6047 13.9907 -96.1915
rradius 61.4918
rwrist 34.3152
rhand -9.02668 -3.95423
rfingers 7.12502
rthumb 16.9208 -33.2371
lclavicle 5.56597e-015 1.66979e-014
lhumerus -12.5844 -35.2552 89.3938
lradius 55.8359
lwrist -25.0527
lhand -11.193 16.716
lfingers 7.12502
lthumb 14.8345 46.165
rfemur -48.7077 14.0264 13.604
rtibia 45.3351
rfoot -6.59738 -17.8301
rtoes -16.2645
lfemur -49.8301 -9.65697 -16.8723
ltibia 54.417
lfoot -4.73518 21.4298
ltoes 9.40074
97
root 2.69127 14.8884 20.5452 -167.417 -23.268 183.44
lowerback 25.2193 1.04013 -0.892106
upperback 13.259 -1.56634 -0.300284
thorax 0.662979 -1.88942 0.541497
lowerneck -32.5259 -0.585303 0.911086
upperneck 31.7148 -1.62376 -0.956884
head 16.9675 -0.859234 -1.01528
rclavicle -2.70347e-014 -6.52014e-014
rhumerus -13.5173 14.0559 -96.1197
rradius 62.0077
rwrist 34.341
rhand -8.97373 -4.13819
rfingers 7.12502
rthumb 16.9717 -33.4167
lclavicle -2.70347e-014 -6.52014e-014
lhumerus -12.5325 -35.5932 89.2406
lradius 56.639
lwrist -25.1167
lhand -11.214 16.8705
lfingers 7.12502
lthumb 14.8144 46.321
rfemur -49.3106 13.9747 13.9089
rtibia 46.0174
rfoot -6.48997 -18.0377
rtoes -15.9245
lfemur -50.5262 -9.52388 -16.6848
ltibia 55.2542
lfoot -4.62654 21.5951
ltoes 9.18921
98
root 2.73317 14.8657 20.5031 -167.202 -23.4213 183.522
lowerback 25.8563 1.21596 -0.844403
upperback 13.3981 -1.41179 -0.298251
thorax 0.518516 -1.83622 0.492213
lowerneck -32.4009 -0.712396 0.791011
upperneck 31.3006 -1.70217 -0.944094
head 16.7317 -0.896399 -0.995594
rclavicle 4.92986e-014 4.53229e-014
rhumerus -13.4241 14.148 -96.0258
rradius 62.5835
rwrist 34.3741
rhand -8.81301 -4.32158
rfingers 7.12502
rthumb 17.1264 -33.5868
lclavicle 4.92986e-014 4.53229e-014
lhumerus -12.5041 -35.9639 89.068
lradius 57.5324
lwrist -25.1397
lhand -11.2375 17.0366
lfingers 7.12502
lthumb 14.7917 46.4887
rfemur -49.8508 13.9727 14.1837
rtibia 46.6286
rfoot -6.34142 -18.2099
rtoes -15.5635
lfemur -51.1871 -9.37188 -16.5562
ltibia 56.1219
lfoot -4.56024 21.8455
ltoes 9.13317
99
root 2.77248 14.8409 20.4608 -166.997 -23.5951 183.595
lowerback 26.4924 1.36457 -0.778892
upperback 13.5512 -1.29334 -0.296488
thorax 0.393879 -1.80187 0.438751
lowerneck -32.1079 -0.833603 0.603881
upperneck 30.7292 -1.74409 -0.890282
head 16.3879 -0.921149 -0.933617
rclavicle 3.18055e-015 -2.62396e-014
rhumerus -13.3236 14.3352 -95.9035
rradius 63.2111
rwrist 34.4251
rhand -8.57436 -4.49931
rfingers 7.12502
rthumb 17.3561 -33.7444
lclavicle 3.18055e-015 -2.62396e-014
lhumerus -12.5055 -36.2924 88.8995
lradius 58.5058
lwrist -25.0752
lhand -11.2885 17.2086
lfingers 7.12502
lthumb 14.7426 46.6644
rfemur -50.3543 13.9897 14.4182
rtibia 47.2198
rfoot -6.26356 -18.4179
rtoes -15.2122
lfemur -51.8327 -9.20465 -16.5057
ltibia 57.0117
lfoot -4.53777 22.168
ltoes 9.2028
100
root 2.81006 14.8136 20.418 -166.777 -23.8152 183.658
lowerback 27.1007 1.48239 -0.684809
upperback 13.7106 -1.20728 -0.30215
thorax 0.292546 -1.78156 0.366666
lowerneck -31.8145 -0.922154 0.463167
upperneck 30.107 -1.74931 -0.868728
head 16.0257 -0.929576 -0.885138
rclavicle 8.74653e-015 1.86858e-014
rhumerus -13.2198 14.5561 -95.775
rradius 63.8836
rwrist 34.5168
rhand -8.31238 -4.67203
rfingers 7.12502
rthumb 17.6082 -33.8947
lclavicle 8.74653e-015 1.86858e-014
lhumerus -12.5323 -36.6208 88.7203
lradius 59.5292
lwrist -24.9646
lhand -11.3625 17.3938
lfingers 7.12502
lthumb 14.6713 46.8548
rfemur -50.8628 14.0129 14.6075
rtibia 47.8366
rfoot -6.30725 -18.6818
rtoes -14.835
lfemur -52.494 -9.02368 -16.5294
ltibia 57.9147
lfoot -4.58446 22.5596
ltoes 9.44853
101
root 2.84653 14.784 20.3742 -166.52 -24.1095 183.694
lowerback 27.657 1.56806 -0.557491
upperback 13.8779 -1.15122 -0.322975
thorax 0.227027 -1.77249 0.26427
lowerneck -31.5069 -0.990614 0.399763
upperneck 29.4913 -1.76425 -0.866456
head 15.6696 -0.936108 -0.860973
rclavicle 9.54166e-015 3.77691e-014
rhumerus -13.0959 14.7542 -95.6541
rradius 64.5801
rwrist 34.6745
rhand -8.07442 -4.82608
rfingers 7.12502
rthumb 17.8372 -34.028
lclavicle 9.54166e-015 3.77691e-014
lhumerus -12.558 -36.995 88.5084
lradius 60.58
lwrist -24.7821
lhand -11.4346 17.5842
lfingers 7.12502
lthumb 14.6018 47.0502
rfemur -51.4026 14.0019 14.7471
rtibia 48.5038
rfoot -6.47868 -18.981
rtoes -14.3961
lfemur -53.1841 -8.84525 -16.636
ltibia 58.8116
lfoot -4.66001 23.0014
ltoes 9.79513
102
root 2.88277 14.7532 20.3295 -166.214 -24.4706 183.699
lowerback 28.156 1.61484 -0.449611
upperback 14.0499 -1.14441 -0.335716
thorax 0.196402 -1.7876 0.192584
lowerneck -31.3146 -1.02916 0.351661
upperneck 28.9992 -1.75048 -0.875266
head 15.401 -0.931354 -0.841802
rclavicle -1.59028e-014 5.56597e-015
rhumerus -12.9478 15.0342 -95.5208
rradius 65.2825
rwrist 34.8443
rhand -7.92269 -4.9906
rfingers 7.12502
rthumb 17.9832 -34.1792
lclavicle -1.59028e-014 5.56597e-015
lhumerus -12.5577 -37.3065 88.2826
lradius 61.6045
lwrist -24.6383
lhand -11.4963 17.7748
lfingers 7.12502
lthumb 14.5424 47.2451
rfemur -51.9942 13.9519 14.8416
rtibia 49.219
rfoot -6.74663 -19.3045
rtoes -13.9435
lfemur -53.9071 -8.66385 -16.8197
ltibia 59.6791
lfoot -4.73773 23.4826
ltoes 10.2189
103
root 2.91905 14.7228 20.284 -165.866 -24.8773 183.675
lowerback 28.6152 1.64957 -0.346747
upperback 14.2226 -1.14958 -0.356438
thorax 0.186697 -1.8067 0.117092
lowerneck -31.1987 -1.06686 0.342284
upperneck 28.5987 -1.76524 -0.877285
head 15.193 -0.933295 -0.835088
rclavicle 6.36111e-014 -1.43125e-014
rhumerus -12.7821 15.3029 -95.3977
rradius 65.9821
rwrist 34.989
rhand -7.83969 -5.16119
rfingers 7.12502
rthumb 18.0631 -34.3424
lclavicle 6.36111e-014 -1.43125e-014
lhumerus -12.541 -37.6328 88.0284
lradius 62.5976
lwrist -24.5576
lhand -11.5459 17.9224
lfingers 7.12502
lthumb 14.4945 47.3961
rfemur -52.6215 13.8557 14.9095
rtibia 49.9607
rfoot -7.06274 -19.634
rtoes -13.5402
lfemur -54.6339 -8.46832 -17.0774
ltibia 60.4873
lfoot -4.81283 23.9989
ltoes 10.6739
104
root 2.95529 14.6937 20.2381 -165.474 -25.3327 183.622
lowerback 29.0315 1.66223 -0.275632
upperback 14.3979 -1.1862 -0.362365
thorax 0.201699 -1.84223 0.083296
lowerneck -31.2212 -1.08762 0.33923
upperneck 28.3643 -1.76873 -0.88104
head 15.0908 -0.930909 -0.832189
rclavicle -1.11319e-014 5.56597e-015
rhumerus -12.5883 15.6379 -95.2515
rradius 66.6698
rwrist 35.1045
rhand -7.80538 -5.33901
rfingers 7.12502
rthumb 18.0961 -34.5172
lclavicle -1.11319e-014 5.56597e-015
lhumerus -12.5051 -37.8884 87.7764
lradius 63.5524
lwrist -24.5458
lhand -11.6086 17.9979
lfingers 7.12502
lthumb 14.4341 47.4759
rfemur -53.2735 13.6872 14.972
rtibia 50.7035
rfoot -7.39233 -19.9592
rtoes -13.1681
lfemur -55.3553 -8.27586 -17.391
ltibia 61.2122
lfoot -4.88507 24.5465
ltoes 11.1807
105
root 2.99114 14.6673 20.1917 -165.052 -25.8016 183.555
lowerback 29.4227 1.66483 -0.248711
upperback 14.5655 -1.24134 -0.348634
thorax 0.221299 -1.88845 0.10125
lowerneck -31.2976 -1.08549 0.350404
upperneck 28.1914 -1.74045 -0.9129
head 15.0276 -0.918539 -0.838369
rclavicle 4.69132e-014 2.5842e-014
rhumerus -12.391 16.0446 -95.0698
rradius 67.3584
rwrist 35.1622
rhand -7.78247 -5.49289
rfingers 7.12502
rthumb 18.1181 -34.669
lclavicle 4.69132e-014 2.5842e-014
lhumerus -12.4823 -38.0519 87.5627
lradius 64.4565
lwrist -24.6522
lhand -11.7244 17.9732
lfingers 7.12502
lthumb 14.3226 47.4592
rfemur -53.9311 13.4724 15.0452
rtibia 51.4257
rfoot -7.72602 -20.2765
rtoes -12.8519
lfemur -56.0412 -8.06672 -17.7435
ltibia 61.8326
lfoot -4.9488 25.1248
ltoes 11.7285
106
root 3.02636 14.6436 20.1451 -164.61 -26.2736 183.485
lowerback 29.7895 1.67411 -0.237466
upperback 14.734 -1.28982 -0.326066
thorax 0.254619 -1.93189 0.135645
lowerneck -31.336 -1.0839 0.370379
upperneck 27.9726 -1.71671 -0.942295
head 14.9363 -0.906748 -0.844828
rclavicle 2.62396e-014 4.65156e-014
rhumerus -12.1884 16.4467 -94.8686
rradius 68.0637
rwrist 35.165
rhand -7.71683 -5.63285
rfingers 7.12502
rthumb 18.1813 -34.8031
lclavicle 2.62396e-014 4.65156e-014
lhumerus -12.4608 -38.1949 87.3603
lradius 65.3331
lwrist -24.8619
lhand -11.9185 17.867
lfingers 7.12502
lthumb 14.1355 47.3661
rfemur -54.5817 13.2256 15.1398
rtibia 52.118
rfoot -8.07049 -20.579
rtoes -12.5572
lfemur -56.6764 -7.84716 -18.109
ltibia 62.3387
lfoot -5.07199 25.7331
ltoes 12.4063
107
root 3.06052 14.6221 20.0982 -164.16 -26.746 183.426
lowerback 30.1433 1.67949 -0.23756
upperback 14.8926 -1.34173 -0.290038
thorax 0.284071 -1.97674 0.192616
lowerneck -31.3082 -1.08017 0.365469
upperneck 27.7369 -1.6885 -0.946099
head 14.8252 -0.892712 -0.834806
rclavicle 7.15625e-015 5.96354e-014
rhumerus -12.011 16.8708 -94.6616
rradius 68.795
rwrist 35.0945
rhand -7.60392 -5.76068
rfingers 7.12502
rthumb 18.2899 -34.9208
lclavicle 7.15625e-015 5.96354e-014
lhumerus -12.4821 -38.282 87.1963
lradius 66.2103
lwrist -25.189
lhand -12.161 17.7227
lfingers 7.12502
lthumb 13.9019 47.238
rfemur -55.2186 12.9571 15.2704
rtibia 52.7802
rfoot -8.42658 -20.8792
rtoes -12.2606
lfemur -57.2508 -7.62334 -18.4567
ltibia 62.7245
lfoot -5.24383 26.3577
ltoes 13.1559
108
root 3.09343 14.6021 20.0505 -163.706 -27.2116 183.379
lowerback 30.4844 1.69277 -0.22995
upperback 15.0447 -1.37858 -0.25612
thorax 0.312944 -2.01233 0.238795
lowerneck -31.2998 -1.07572 0.397835
upperneck 27.5301 -1.67729 -0.95762
head 14.7308 -0.883045 -0.83854
rclavicle -2.06736e-014 -2.50469e-014
rhumerus -11.8708 17.24 -94.477
rradius 69.56
rwrist 34.9872
rhand -7.4474 -5.88304
rfingers 7.12502
rthumb 18.4405 -35.029
lclavicle -2.06736e-014 -2.50469e-014
lhumerus -12.5216 -38.3874 87.0387
lradius 67.0872
lwrist -25.6062
lhand -12.4542 17.6019
lfingers 7.12502
lthumb 13.6192 47.1363
rfemur -55.8421 12.7017 15.4204
rtibia 53.4187
rfoot -8.79486 -21.1998
rtoes -11.9669
lfemur -57.7548 -7.40182 -18.7707
ltibia 62.9872
lfoot -5.53945 26.9903
ltoes 14.0558
109
root 3.12477 14.5833 20.0019 -163.26 -27.6629 183.339
lowerback 30.8225 1.72098 -0.208431
upperback 15.1955 -1.3925 -0.229975
thorax 0.34255 -2.03501 0.262012
lowerneck -31.2648 -1.11388 0.351618
upperneck 27.3217 -1.72755 -0.859034
head 14.6325 -0.890964 -0.796368
rclavicle 1.66979e-014 -3.65764e-014
rhumerus -11.7612 17.5395 -94.3193
rradius 70.3528
rwrist 34.85
rhand -7.29989 -6.00928
rfingers 7.12502
rthumb 18.5824 -35.1417
lclavicle 1.66979e-014 -3.65764e-014
lhumerus -12.5748 -38.5454 86.8732
lradius 68.0032
lwrist -26.0338
lhand -12.7192 17.601
lfingers 7.12502
lthumb 13.3639 47.1524
rfemur -56.4448 12.4763 15.578
rtibia 54.0408
rfoot -9.17101 -21.5386
rtoes -11.6766
lfemur -58.1715 -7.19516 -19.0342
ltibia 63.1249
lfoot -5.96507 27.6081
ltoes 15.0591
